PathFileType	4	(x/y/z)	TRC_MarkerData\Passive\Passive_Pref0006.trc
DataRate	CameraRate	NumFrames	NumMarkers	Units	OrigDataRate	OrigDataStartFrame	OrigNumFrames
240	240	11	49	mm	240	118	313
Frame#	Time	R_AC			L_AC			HEAD			STERN			C7			R_IC			L_ASIS			R_ASIS			L_GT			R_GT			L_PSIS			R_PSIS			SACRAL			L_LAT_KNEE			L_MED_KNEE			R_LAT_KNEE			R_MED_KNEE			L_LAT_ANK			L_MED_ANK			R_LAT_ANK			R_MED_ANK			L_THIGH_PROX_POST			L_THIGH_PROX_ANT			L_THIGH_DIST_ANT			L_THIGH_DIST_POST			R_THIGH_PROX_POST			R_THIGH_PROX_ANT			R_THIGH_DIST_ANT			R_THIGH_DIST_POST			L_SHANK_PROX_POST			L_SHANK_PROX_ANT			L_SHANK_DIST_ANT			L_SHANK_DIST_POST			R_SHANK_PROX_POST			R_SHANK_PROX_ANT			R_SHANK_DIST_ANT			R_SHANK_DIST_POST			L_HEEL_LAT			L_HEEL_SUP			L_HEEL_MED			R_HEEL_LAT			R_HEEL_SUP			R_HEEL_MED			L_1ST_MET			L_5TH_MET			L_TOE			R_1ST_MET			R_5TH_MET			R_TOE			
		X1	Y1	Z1	X2	Y2	Z2	X3	Y3	Z3	X4	Y4	Z4	X5	Y5	Z5	X6	Y6	Z6	X7	Y7	Z7	X8	Y8	Z8	X9	Y9	Z9	X10	Y10	Z10	X11	Y11	Z11	X12	Y12	Z12	X13	Y13	Z13	X14	Y14	Z14	X15	Y15	Z15	X16	Y16	Z16	X17	Y17	Z17	X18	Y18	Z18	X19	Y19	Z19	X20	Y20	Z20	X21	Y21	Z21	X22	Y22	Z22	X23	Y23	Z23	X24	Y24	Z24	X25	Y25	Z25	X26	Y26	Z26	X27	Y27	Z27	X28	Y28	Z28	X29	Y29	Z29	X30	Y30	Z30	X31	Y31	Z31	X32	Y32	Z32	X33	Y33	Z33	X34	Y34	Z34	X35	Y35	Z35	X36	Y36	Z36	X37	Y37	Z37	X38	Y38	Z38	X39	Y39	Z39	X40	Y40	Z40	X41	Y41	Z41	X42	Y42	Z42	X43	Y43	Z43	X44	Y44	Z44	X45	Y45	Z45	X46	Y46	Z46	X47	Y47	Z47	X48	Y48	Z48	X49	Y49	Z49	

118	0.48906	-276.78	1525.1	454.07	-290.14	1545.4	44.207	-259.39	1861.9	264.59	-213.54	1502.4	252.07	-348.49	1581.5	248.2	NaN	NaN	NaN	-251.59	1044.6	132.19	-247.11	1056.3	398.74	-354.94	967.57	84.631	-322.77	976.79	449.7	-449.97	1060.1	211.26	-454.12	1055.5	321.46	-462.3	1022.2	263.6	-372.19	569.2	133.73	-367.57	588.39	271.8	-147.73	585.95	432.79	-140.26	578.62	298.33	-504.57	123.86	176.77	-510.8	125.4	264.54	-98.132	106.99	399.32	-61.351	156.56	311.35	-385.09	790.88	107.01	-321.42	780.61	101.81	-327.69	708.13	119.16	-391.51	718.12	118.35	-263.91	794.77	456.69	-202.21	825.54	453.67	-173.22	754.92	450.05	-237.15	725.41	449.09	-415.58	477.19	157.39	-352.97	466.98	163.94	-362.22	418.19	174.32	-418.88	428.48	157.85	-156.79	395.48	442.83	-91.964	413.71	433.86	-79.984	340.96	422.47	-145.79	322.2	429.74	-564.41	50.584	182.67	-581.37	79.609	213.12	-573.36	54.419	249.11	-149.37	44.847	362.47	-156.19	77.515	331.5	-127.77	61.307	302.18	-351.84	47.202	291.53	-366.48	44.705	181.6	-302.06	59.049	262.09	71.192	118.93	336.05	45.748	89.639	439.09	108.92	133.47	382.01
119	0.49324	-271.12	1524.6	454.11	-285.44	1545	44.28	-254.07	1861.5	264.8	-208.47	1501.9	251.94	-343.43	1581.1	248.41	NaN	NaN	NaN	-247.11	1044.2	131.91	-241.46	1055.8	398.48	-350.79	967.4	84.768	-317.23	976.25	449.67	-444.69	1059.7	211.66	-448.78	1055.2	321.99	-457.34	1022	264.18	-369.59	569.1	133.84	-364.87	588.24	271.92	-143.63	584.89	432.13	-136.29	577.52	297.67	-504.29	124.18	176.74	-510.48	125.72	264.58	-83.174	106.92	398.53	-47.505	157.63	310.75	-381.6	790.9	107.2	-317.84	780.47	101.7	-324.54	707.92	119.22	-388.32	718.2	118.49	-259.42	793.84	456.52	-197.51	824.31	453.62	-168.92	753.56	449.86	-232.97	724.38	448.76	-413.43	477.28	157.5	-350.85	466.78	164.02	-360.35	418.02	174.41	-416.97	428.6	157.94	-148.99	394.15	442.1	-84.578	413.88	433.32	-70.881	341.44	421.9	-136.26	321.15	428.95	-564.29	51.045	182.69	-581.26	80.13	213.13	-573.23	54.892	249.15	-132.88	43.663	361.48	-140.48	76.228	330.56	-111.6	60.85	301.23	-351.71	47.088	291.59	-366.39	44.693	181.63	-301.9	58.794	262.13	85.868	123.16	335.56	61.053	92.977	438.52	123.21	138.44	381.63
120	0.49742	-265.44	1524.1	454.15	-280.74	1544.7	44.363	-248.75	1861	265.02	-203.37	1501.4	251.81	-338.36	1580.7	248.63	NaN	NaN	NaN	-242.61	1043.8	131.63	-235.78	1055.2	398.2	-346.62	967.22	84.911	-311.64	975.67	449.63	-439.51	1059.4	212.06	-443.4	1054.9	322.52	-452.35	1021.8	264.78	-366.97	568.99	133.95	-362.16	588.07	272.05	-139.57	583.78	431.48	-132.37	576.38	297.01	-504	124.5	176.72	-510.15	126.04	264.62	-68.43	107.03	397.68	-33.867	158.87	310.1	-378.09	790.9	107.4	-314.28	780.29	101.63	-321.38	707.7	119.29	-385.12	718.28	118.63	-254.91	792.87	456.34	-192.78	823.03	453.57	-164.6	752.14	449.67	-228.78	723.3	448.44	-411.27	477.37	157.6	-348.72	466.57	164.11	-358.47	417.85	174.5	-415.04	428.71	158.03	-141.28	392.86	441.35	-77.302	414.04	432.78	-61.916	341.96	421.32	-126.84	320.16	428.13	-564.16	51.513	182.72	-581.12	80.654	213.15	-573.09	55.372	249.18	-116.59	42.717	360.41	-124.95	75.177	329.53	-95.632	60.635	300.21	-351.58	46.978	291.65	-366.29	44.682	181.65	-301.73	58.542	262.17	100.25	127.55	335.04	76.075	96.448	437.9	137.19	143.52	381.23
121	0.5016	-259.73	1523.5	454.21	-276.03	1544.3	44.456	-243.43	1860.6	265.25	-198.26	1500.9	251.68	-333.25	1580.3	248.85	NaN	NaN	NaN	-238.1	1043.3	131.34	-230.07	1054.6	397.92	-342.45	967.01	85.061	-305.98	975.05	449.6	-434.41	1059	212.47	-437.97	1054.6	323.05	-447.33	1021.5	265.39	-364.34	568.87	134.07	-359.43	587.9	272.18	-135.52	582.63	430.85	-128.48	575.2	296.37	-503.7	124.83	176.7	-509.83	126.37	264.66	-53.92	107.32	396.77	-20.449	160.27	309.4	-374.57	790.9	107.6	-310.74	780.08	101.59	-318.2	707.47	119.35	-381.91	718.34	118.77	-250.37	791.87	456.18	-188.02	821.7	453.52	-160.26	750.67	449.49	-224.58	722.18	448.13	-409.09	477.45	157.71	-346.59	466.35	164.19	-356.58	417.67	174.6	-413.1	428.82	158.12	-133.64	391.59	440.6	-70.134	414.21	432.23	-53.089	342.51	420.72	-117.53	319.24	427.29	-564.03	51.991	182.75	-580.98	81.181	213.18	-572.96	55.858	249.22	-100.51	42	359.25	-109.63	74.356	328.42	-79.883	60.653	299.1	-351.45	46.872	291.7	-366.2	44.674	181.68	-301.57	58.292	262.21	114.32	132.06	334.5	90.795	100.03	437.24	150.85	148.69	380.82
122	0.50578	-253.99	1522.9	454.27	-271.32	1543.8	44.559	-238.1	1860.1	265.48	-193.13	1500.4	251.56	-328.12	1579.8	249.1	NaN	NaN	NaN	-233.58	1042.9	131.05	-224.32	1054	397.62	-338.25	966.79	85.217	-300.26	974.39	449.56	-429.41	1058.6	212.91	-432.49	1054.2	323.58	-442.27	1021.2	266.01	-361.7	568.73	134.19	-356.68	587.71	272.3	-131.49	581.44	430.24	-124.6	574	295.73	-503.4	125.16	176.7	-509.49	126.7	264.71	-39.663	107.75	395.79	-7.2649	161.81	308.66	-371.03	790.89	107.79	-307.23	779.82	101.59	-315.01	707.22	119.41	-378.67	718.4	118.92	-245.79	790.83	456.01	-183.21	820.33	453.46	-155.88	749.15	449.31	-220.35	721.03	447.84	-406.89	477.52	157.82	-344.44	466.12	164.28	-354.68	417.48	174.69	-411.15	428.92	158.22	-126.09	390.35	439.82	-63.071	414.38	431.68	-44.402	343.08	420.1	-108.35	318.38	426.42	-563.91	52.476	182.79	-580.82	81.712	213.21	-572.82	56.351	249.26	-84.682	41.498	357.99	-94.547	73.758	327.23	-64.376	60.891	297.91	-351.32	46.77	291.75	-366.1	44.668	181.71	-301.41	58.045	262.24	128.07	136.67	333.94	105.19	103.69	436.54	164.17	153.93	380.4
123	0.50996	-248.24	1522.2	454.34	-266.6	1543.4	44.675	-232.78	1859.5	265.73	-187.97	1499.9	251.45	-322.95	1579.3	249.35	NaN	NaN	NaN	-229.04	1042.4	130.76	-218.55	1053.3	397.31	-334.04	966.55	85.379	-294.5	973.69	449.52	-424.48	1058.2	213.37	-426.98	1053.7	324.1	-437.19	1020.9	266.65	-359.04	568.59	134.31	-353.91	587.5	272.43	-127.44	580.23	429.65	-120.73	572.78	295.11	-503.1	125.51	176.69	-509.15	127.04	264.77	-25.678	108.33	394.75	5.6719	163.47	307.87	-367.47	790.88	107.98	-303.73	779.52	101.62	-311.8	706.97	119.48	-375.42	718.44	119.07	-241.17	789.77	455.84	-178.36	818.94	453.38	-151.47	747.59	449.12	-216.09	719.85	447.55	-404.68	477.58	157.93	-342.27	465.88	164.37	-352.76	417.29	174.79	-409.18	429.02	158.32	-118.63	389.14	439.03	-56.111	414.53	431.12	-35.856	343.68	419.47	-99.281	317.58	425.53	-563.78	52.971	182.82	-580.64	82.247	213.25	-572.67	56.851	249.31	-69.117	41.199	356.63	-79.726	73.371	325.95	-49.132	61.333	296.63	-351.19	46.673	291.8	-366.01	44.663	181.75	-301.25	57.801	262.28	141.49	141.36	333.36	119.26	107.41	435.8	177.15	159.2	379.97
124	0.51414	-242.45	1521.6	454.41	-261.87	1542.9	44.802	-227.47	1859	265.99	-182.8	1499.3	251.34	-317.75	1578.8	249.62	NaN	NaN	NaN	-224.47	1041.9	130.48	-212.76	1052.6	396.99	-329.81	966.28	85.546	-288.68	972.96	449.48	-419.64	1057.8	213.87	-421.44	1053.3	324.63	-432.07	1020.5	267.3	-356.35	568.43	134.43	-351.1	587.28	272.56	-123.38	578.98	429.09	-116.85	571.55	294.51	-502.79	125.86	176.69	-508.81	127.39	264.83	-11.983	109.03	393.65	18.349	165.24	307.03	-363.89	790.85	108.16	-300.24	779.19	101.69	-308.57	706.69	119.54	-372.14	718.47	119.23	-236.5	788.69	455.67	-173.46	817.52	453.29	-147	746.01	448.93	-211.77	718.66	447.27	-402.45	477.64	158.05	-340.09	465.63	164.46	-350.84	417.09	174.88	-407.2	429.11	158.41	-111.25	387.96	438.22	-49.248	414.67	430.56	-27.453	344.28	418.83	-90.346	316.82	424.61	-563.64	53.474	182.87	-580.46	82.786	213.29	-572.52	57.36	249.36	-53.845	41.085	355.16	-65.19	73.182	324.58	-34.173	61.964	295.27	-351.05	46.581	291.84	-365.91	44.661	181.78	-301.09	57.56	262.31	154.57	146.1	332.77	132.97	111.15	435.01	189.77	164.47	379.55
125	0.51832	-236.65	1520.9	454.49	-257.12	1542.4	44.941	-222.15	1858.4	266.27	-177.61	1498.7	251.24	-312.51	1578.3	249.9	NaN	NaN	NaN	-219.9	1041.4	130.19	-206.95	1051.9	396.67	-325.56	966	85.719	-282.81	972.19	449.44	-414.87	1057.3	214.4	-415.87	1052.7	325.17	-426.92	1020.1	267.96	-353.65	568.25	134.55	-348.27	587.05	272.69	-119.29	577.72	428.54	-112.94	570.32	293.91	-502.48	126.22	176.69	-508.45	127.75	264.89	1.404	109.83	392.48	30.753	167.1	306.14	-360.28	790.82	108.33	-296.76	778.82	101.79	-305.31	706.41	119.6	-368.83	718.49	119.38	-231.77	787.59	455.5	-168.5	816.08	453.18	-142.47	744.42	448.73	-207.4	717.44	447	-400.2	477.69	158.16	-337.89	465.37	164.55	-348.89	416.87	174.98	-405.19	429.19	158.51	-103.95	386.81	437.39	-42.48	414.79	430	-19.191	344.87	418.18	-81.545	316.12	423.66	-563.51	53.988	182.91	-580.26	83.33	213.33	-572.37	57.877	249.41	-38.889	41.136	353.59	-50.958	73.173	323.12	-19.522	62.762	293.82	-350.92	46.494	291.89	-365.82	44.66	181.81	-300.93	57.322	262.35	167.3	150.84	332.17	146.31	114.88	434.18	202.02	169.71	379.12
126	0.5225	-230.82	1520.1	454.58	-252.37	1541.9	45.093	-216.84	1857.8	266.56	-172.4	1498.1	251.15	-307.24	1577.7	250.19	NaN	NaN	NaN	-215.3	1040.9	129.9	-201.11	1051.2	396.33	-321.28	965.7	85.897	-276.9	971.39	449.41	-410.15	1056.9	214.96	-410.28	1052.2	325.7	-421.74	1019.6	268.63	-350.92	568.06	134.67	-345.41	586.8	272.82	-115.17	576.45	428.02	-108.99	569.09	293.34	-502.16	126.6	176.7	-508.09	128.11	264.95	14.467	110.71	391.25	42.873	169.02	305.21	-356.65	790.78	108.48	-293.28	778.41	101.92	-302.03	706.11	119.65	-365.5	718.5	119.54	-226.97	786.48	455.32	-163.48	814.64	453.05	-137.87	742.82	448.52	-202.96	716.22	446.73	-397.92	477.73	158.28	-335.67	465.09	164.64	-346.93	416.65	175.07	-403.17	429.26	158.61	-96.743	385.68	436.54	-35.802	414.88	429.42	-11.073	345.46	417.5	-72.882	315.45	422.68	-563.38	54.512	182.96	-580.06	83.881	213.38	-572.21	58.403	249.46	-24.274	41.333	351.92	-37.049	73.323	321.57	-5.1999	63.706	292.28	-350.78	46.412	291.92	-365.72	44.662	181.84	-300.77	57.088	262.38	179.66	155.57	331.57	159.28	118.57	433.31	213.91	174.88	378.7
127	0.52668	-224.97	1519.3	454.68	-247.6	1541.3	45.258	-211.53	1857.2	266.87	-167.17	1497.4	251.07	-301.93	1577.1	250.5	NaN	NaN	NaN	-210.68	1040.4	129.61	-195.27	1050.4	395.99	-316.99	965.38	86.08	-270.95	970.56	449.38	-405.46	1056.4	215.56	-404.67	1051.5	326.25	-416.53	1019.2	269.31	-348.16	567.86	134.79	-342.51	586.53	272.95	-110.98	575.16	427.51	-104.98	567.87	292.77	-501.83	126.98	176.71	-507.71	128.48	265.02	27.191	111.65	389.95	54.696	170.98	304.24	-352.99	790.73	108.63	-289.8	777.98	102.06	-298.72	705.8	119.71	-362.14	718.49	119.69	-222.1	785.37	455.15	-158.39	813.21	452.89	-133.19	741.23	448.28	-198.44	715	446.48	-395.62	477.76	158.39	-333.43	464.81	164.72	-344.94	416.42	175.16	-401.13	429.33	158.71	-89.616	384.58	435.67	-29.207	414.95	428.84	-3.0959	346.02	416.81	-64.362	314.82	421.68	-563.24	55.047	183.01	-579.85	84.438	213.43	-572.05	58.939	249.52	-10.023	41.653	350.15	-23.48	73.61	319.93	8.7705	64.77	290.66	-350.64	46.334	291.96	-365.63	44.665	181.87	-300.61	56.857	262.41	191.66	160.24	330.95	171.85	122.18	432.39	225.42	179.95	378.29
128	0.53086	-219.09	1518.5	454.79	-242.8	1540.8	45.437	-206.23	1856.5	267.19	-161.92	1496.8	250.99	-296.59	1576.5	250.82	NaN	NaN	NaN	-206.04	1039.8	129.33	-189.41	1049.6	395.65	-312.67	965.04	86.267	-264.97	969.71	449.35	-400.78	1055.9	216.19	-399.05	1050.9	326.79	-411.3	1018.6	269.99	-345.37	567.65	134.91	-339.58	586.25	273.07	-106.74	573.88	427.01	-100.9	566.67	292.22	-501.5	127.38	176.72	-507.33	128.86	265.1	39.56	112.63	388.6	66.21	172.95	303.23	-349.29	790.66	108.76	-286.3	777.52	102.22	-295.38	705.48	119.76	-358.75	718.47	119.85	-217.14	784.26	454.97	-153.23	811.79	452.69	-128.43	739.66	448.03	-193.84	713.79	446.22	-393.3	477.78	158.51	-331.17	464.51	164.81	-342.94	416.18	175.25	-399.06	429.39	158.8	-82.573	383.49	434.78	-22.691	414.98	428.25	4.7397	346.56	416.11	-55.988	314.21	420.65	-563.1	55.593	183.06	-579.63	85.004	213.48	-571.89	59.485	249.58	3.8414	42.07	348.29	-10.269	74.008	318.21	22.368	65.928	288.97	-350.5	46.261	291.99	-365.53	44.67	181.9	-300.45	56.629	262.44	203.29	164.82	330.33	184.02	125.68	431.43	236.55	184.88	377.88
